<?xml version="1.0" standalone="no"?>
<!DOCTYPE svg PUBLIC "-//W3C//DTD SVG 20010904//EN"
 "http://www.w3.org/TR/2001/REC-SVG-20010904/DTD/svg10.dtd">
<svg version="1.0" xmlns="http://www.w3.org/2000/svg"
 width="721.000000pt" height="721.000000pt" viewBox="0 0 721.000000 721.000000"
 preserveAspectRatio="xMidYMid meet">
<metadata>
Created by potrace 1.11, written by Peter Selinger 2001-2013
</metadata>
<g transform="translate(0.000000,721.000000) scale(0.100000,-0.100000)"
fill="#000000" stroke="none">
<path d="M3429 6656 c-2 -2 -47 -7 -99 -10 -52 -4 -102 -9 -110 -11 -8 -2 -37
-6 -64 -10 -41 -5 -138 -22 -221 -39 -691 -141 -1380 -562 -1817 -1111 -44
-55 -85 -107 -92 -116 -24 -30 -143 -215 -183 -284 -139 -240 -282 -610 -327
-845 -3 -14 -9 -47 -15 -75 -5 -27 -12 -70 -16 -95 -3 -25 -8 -56 -10 -70 -2
-14 -7 -54 -10 -89 -3 -36 -9 -69 -12 -74 -6 -11 -4 -303 3 -402 6 -86 14
-176 19 -205 50 -316 105 -519 207 -760 52 -121 131 -280 174 -348 19 -29 34
-54 34 -56 0 -21 193 -285 293 -401 118 -137 361 -365 481 -450 15 -11 47 -34
70 -51 150 -112 401 -252 621 -347 293 -126 682 -221 1000 -245 184 -14 552
-7 685 12 19 3 67 10 105 16 39 5 81 12 95 15 14 3 39 8 55 11 405 72 898 288
1260 552 187 137 409 340 535 491 25 29 50 59 57 66 7 7 51 66 98 131 180 246
323 521 419 804 43 127 94 318 101 380 3 25 8 52 10 60 7 23 25 156 33 240 14
153 7 544 -13 650 -2 14 -7 41 -9 60 -39 273 -143 604 -273 866 -187 375 -459
717 -804 1009 -68 58 -360 265 -373 265 -2 0 -43 23 -91 51 -164 94 -389 194
-574 253 -119 39 -284 83 -341 92 -19 3 -37 7 -40 9 -3 2 -24 6 -46 9 -22 4
-49 8 -59 10 -42 8 -174 27 -221 32 -60 6 -530 14 -535 10z m521 -249 c14 -3
49 -8 79 -11 128 -13 350 -60 504 -107 476 -146 879 -389 1233 -743 393 -393
647 -857 758 -1386 13 -63 27 -142 31 -175 4 -32 9 -68 12 -80 8 -28 12 -493
6 -534 -4 -26 -13 -36 -42 -49 -20 -9 -39 -17 -43 -18 -5 -1 -9 -2 -10 -4 -2
-1 -10 -3 -18 -5 -14 -4 -138 -49 -170 -62 -8 -3 -20 -7 -25 -8 -14 -3 -173
-55 -207 -67 -15 -6 -30 -10 -32 -9 -3 0 -25 -7 -48 -15 -66 -23 -260 -71
-318 -79 -14 -2 -25 -4 -25 -5 0 -1 -13 -4 -30 -6 -114 -16 -125 -12 -84 36
55 66 100 110 110 110 6 0 8 4 4 9 -3 5 4 13 16 16 11 4 18 9 15 12 -3 3 7 17
22 32 43 40 112 131 112 147 0 8 4 14 8 14 4 0 9 12 10 26 1 15 6 32 11 38 12
15 -15 115 -37 139 -27 30 -92 59 -134 61 -21 0 -38 3 -38 6 0 3 -28 4 -62 3
-35 -1 -63 -2 -63 -3 0 -1 -20 -4 -45 -6 -25 -2 -79 -11 -120 -19 -41 -8 -86
-16 -100 -19 -14 -2 -54 -12 -90 -21 -36 -9 -74 -18 -85 -20 -11 -1 -32 -8
-47 -14 -16 -6 -28 -8 -28 -5 0 3 -6 2 -12 -3 -7 -4 -21 -9 -30 -10 -33 -5
-43 -8 -48 -13 -5 -5 -72 -25 -117 -35 -12 -3 -34 -10 -49 -15 -14 -6 -29 -8
-34 -5 -5 3 -10 1 -12 -3 -4 -10 -154 -60 -217 -72 -103 -19 -225 -26 -388
-20 -86 3 -110 -9 -154 -78 -45 -71 -52 -109 -34 -189 8 -37 17 -81 20 -98 3
-16 14 -79 25 -140 27 -157 35 -256 35 -450 0 -178 -9 -227 -45 -260 -33 -29
-49 -6 -66 95 -33 195 -39 905 -10 1105 1 8 27 41 58 73 445 463 653 866 642
1244 -1 57 -5 110 -7 118 -2 8 -7 29 -12 45 -22 82 -74 153 -136 185 -54 28
-157 21 -228 -15 -104 -52 -205 -174 -299 -361 -45 -88 -127 -282 -137 -324
-2 -8 -15 -53 -30 -100 -45 -146 -110 -439 -129 -585 -3 -22 -10 -71 -16 -110
-5 -38 -10 -73 -10 -77 0 -11 -199 -45 -231 -39 -4 0 4 36 18 79 34 103 37
229 8 287 -11 22 -36 50 -55 63 -30 21 -44 23 -100 19 -36 -2 -79 -11 -95 -20
-51 -26 -106 -89 -138 -157 -40 -83 -49 -199 -22 -283 l17 -56 -47 -78 c-78
-128 -168 -264 -172 -259 -2 2 -6 30 -8 63 -16 231 -25 417 -29 593 -3 165
-18 191 -110 200 l-51 5 0 183 c0 101 3 186 7 188 4 3 5 10 3 17 -2 7 -7 50
-10 97 -4 47 -7 93 -8 103 -1 9 -5 17 -9 17 -4 0 -8 6 -8 14 0 8 -20 32 -44
53 -35 31 -53 39 -80 39 -20 -1 -36 -5 -36 -10 0 -5 -3 -7 -6 -3 -10 9 -59
-16 -101 -53 -42 -37 -173 -195 -173 -208 0 -5 -8 -17 -18 -28 -17 -19 -47
-62 -67 -96 -5 -10 -39 -64 -75 -120 -36 -56 -67 -107 -69 -112 -3 -8 -54 -94
-122 -207 -74 -122 -122 -194 -130 -197 -5 -2 -9 -8 -9 -14 0 -6 -11 -24 -25
-42 -14 -17 -29 -36 -33 -41 -76 -105 -244 -275 -272 -275 -6 0 -10 -5 -10
-12 0 -6 -3 -8 -7 -5 -3 4 -13 1 -22 -7 -28 -24 -113 -46 -156 -40 -53 8 -91
30 -145 85 -56 56 -72 78 -102 137 -12 26 -26 49 -31 50 -4 2 -5 8 -1 13 3 5
1 9 -4 9 -9 0 -37 78 -34 93 1 4 -3 7 -10 7 -6 0 -9 3 -5 6 3 4 -1 20 -10 37
-13 26 -14 53 -9 161 3 72 8 145 10 161 24 202 83 453 148 630 138 377 359
719 657 1016 288 287 585 485 961 642 184 76 453 155 615 181 17 2 50 8 75 11
25 4 52 9 60 10 8 2 53 6 100 10 47 4 87 9 89 11 6 6 512 -3 541 -9z m339
-1612 c19 -39 21 -145 5 -253 -25 -162 -110 -379 -211 -537 -56 -87 -174 -245
-184 -245 -4 0 -3 17 1 38 5 20 11 53 14 72 19 122 91 425 139 585 53 173 125
332 165 363 26 20 55 10 71 -23z m-1960 -555 c-1 -72 -6 -133 -11 -136 -4 -3
-5 -11 -1 -17 4 -6 8 -54 8 -107 2 -115 10 -161 37 -214 17 -33 21 -63 24
-166 5 -217 14 -377 29 -543 18 -189 65 -282 166 -324 42 -18 140 -9 194 18
68 34 163 143 275 313 103 156 92 148 170 130 39 -10 204 -12 249 -4 23 4 41
5 41 1 0 -3 2 -139 5 -301 3 -278 6 -328 20 -425 3 -22 8 -60 11 -85 19 -151
76 -304 137 -369 86 -91 221 -94 323 -8 70 59 115 157 140 302 13 78 12 341
-1 460 -6 53 -40 284 -51 349 -6 34 -5 38 12 33 103 -31 288 -22 363 18 31 16
81 62 81 74 0 5 21 14 48 21 26 7 53 17 60 23 6 5 12 7 12 3 0 -3 16 0 35 8
20 9 36 15 38 15 6 -1 63 14 72 20 6 3 15 6 20 8 6 1 51 14 100 28 124 37 157
46 180 49 11 2 21 5 23 6 3 3 7 4 62 15 51 10 50 10 70 18 8 3 31 8 50 11 19
3 46 7 59 10 75 17 230 26 237 15 3 -5 -6 -20 -20 -34 -14 -14 -23 -25 -20
-25 4 0 -32 -38 -78 -84 -152 -155 -230 -259 -213 -286 3 -6 2 -10 -2 -10 -13
0 -9 -80 4 -110 16 -35 59 -72 102 -88 34 -12 212 -19 230 -8 4 3 27 8 52 11
53 7 84 13 84 15 0 1 12 3 26 4 14 2 32 7 39 11 8 5 24 10 35 11 12 1 41 8 66
15 24 7 49 13 54 14 6 1 17 4 25 8 8 3 35 12 60 18 57 16 50 14 83 27 15 7 31
11 35 10 4 -1 21 4 37 11 17 7 37 14 45 16 8 2 40 13 72 23 31 11 59 18 62 15
3 -4 6 -1 6 6 0 7 4 10 9 6 5 -3 13 0 16 6 4 5 13 8 21 5 8 -3 14 -2 14 3 0 9
66 31 73 24 7 -6 -39 -193 -73 -303 -102 -324 -276 -648 -490 -915 -95 -118
-320 -342 -440 -437 -317 -252 -659 -429 -1037 -538 -134 -38 -235 -62 -318
-74 -41 -7 -79 -12 -130 -21 -27 -4 -70 -9 -208 -20 -57 -5 -361 -5 -417 0
-92 8 -165 16 -199 21 -452 66 -827 201 -1194 428 -97 60 -281 194 -355 259
-83 73 -256 246 -310 311 -31 38 -62 74 -67 80 -112 122 -300 438 -403 676
-68 158 -172 530 -148 530 3 0 22 -17 43 -37 52 -50 74 -64 148 -93 56 -23
153 -31 205 -17 8 2 32 7 53 12 20 4 37 12 37 18 0 6 3 8 6 4 7 -7 60 18 87
41 9 8 17 11 17 7 0 -5 7 0 15 11 8 10 15 16 15 12 0 -10 57 40 145 127 79 79
235 274 235 293 0 6 3 12 8 14 11 5 52 66 52 78 0 6 7 13 15 16 8 4 12 10 9
15 -3 5 0 9 6 9 6 0 8 5 5 10 -3 6 -1 10 4 10 6 0 11 7 11 15 0 8 5 15 10 15
6 0 10 4 10 9 0 5 39 75 88 155 48 81 91 155 97 166 5 11 13 20 17 20 5 0 8 5
8 10 0 17 226 348 238 350 1 0 2 -59 1 -130z"/>
</g>
</svg>
